PathFileType	4	(X/Y/Z)	AnatoAlexandra.trc
DataRate	CameraRate	NumFrames	NumMarkers	Units	OrigDataRate	OrigDataStartFrame	OrigNumFrames
300	300	6	44	mm	300	871	1160
Frame#	Time	ASISr			ASISl			PSISl			PSISr			STERr			STERl			STER			XIPH			C6			T8			T10			CLAV_SC			CLAVm			CLAV_ant			CLAV_post			CLAVl			CLAV_AC			SCAP_CP			ACRO_tip			SCAP_AA			SCAPl			SCAPm			SCAP_RS			SCAP_SA			SCAP_IA			DELT			ARMp_up			ARMp_do			ARMl			ARMm			EPICl			EPICm			LARM_elb			LARM_ant			LARMl			LARMm			WRIST			STYLr_up			STYLu			STYLr			MEDH			LATH			LASTC			INDEX			
		X1	Y1	Z1	X2	Y2	Z2	X3	Y3	Z3	X4	Y4	Z4	X5	Y5	Z5	X6	Y6	Z6	X7	Y7	Z7	X8	Y8	Z8	X9	Y9	Z9	X10	Y10	Z10	X11	Y11	Z11	X12	Y12	Z12	X13	Y13	Z13	X14	Y14	Z14	X15	Y15	Z15	X16	Y16	Z16	X17	Y17	Z17	X18	Y18	Z18	X19	Y19	Z19	X20	Y20	Z20	X21	Y21	Z21	X22	Y22	Z22	X23	Y23	Z23	X24	Y24	Z24	X25	Y25	Z25	X26	Y26	Z26	X27	Y27	Z27	X28	Y28	Z28	X29	Y29	Z29	X30	Y30	Z30	X31	Y31	Z31	X32	Y32	Z32	X33	Y33	Z33	X34	Y34	Z34	X35	Y35	Z35	X36	Y36	Z36	X37	Y37	Z37	X38	Y38	Z38	X39	Y39	Z39	X40	Y40	Z40	X41	Y41	Z41	X42	Y42	Z42	X43	Y43	Z43	X44	Y44	Z44
871	2.903333e+00	5.454030e+02	9.843650e+02	-2.941960e+02	5.462510e+02	9.933690e+02	-5.653020e+02	3.584080e+02	1.021450e+03	-4.807330e+02	3.560530e+02	1.019830e+03	-3.887210e+02	5.194660e+02	1.435630e+03	-4.091380e+02	5.194620e+02	1.437470e+03	-4.410210e+02	5.327240e+02	1.418100e+03	-4.234900e+02	6.041170e+02	1.209710e+03	-4.255380e+02	3.816730e+02	1.493210e+03	-4.288070e+02	3.586400e+02	1.399420e+03	-4.344970e+02	3.603430e+02	1.201460e+03	-4.339550e+02	5.104550e+02	1.448430e+03	-4.045990e+02	5.004680e+02	1.454730e+03	-3.729340e+02	4.830370e+02	1.463270e+03	-3.546560e+02	4.690360e+02	1.464900e+03	-3.340080e+02	4.513320e+02	1.475840e+03	-3.238830e+02	4.362880e+02	1.477220e+03	-3.005770e+02	4.662180e+02	1.462620e+03	-2.682350e+02	4.428660e+02	1.464350e+03	-2.495430e+02	4.171320e+02	1.464110e+03	-2.573890e+02	3.883970e+02	1.458250e+03	-2.849470e+02	3.553940e+02	1.438840e+03	-3.114990e+02	3.446080e+02	1.424490e+03	-3.571730e+02	3.616550e+02	1.458920e+03	-3.602900e+02	3.372480e+02	1.303650e+03	-3.433120e+02	4.206630e+02	1.328550e+03	-1.820590e+02	3.725040e+02	1.268820e+03	-2.318510e+02	3.968310e+02	1.192790e+03	-2.132500e+02	3.982160e+02	1.257830e+03	-1.753380e+02	4.677830e+02	1.228230e+03	-2.467800e+02	4.028500e+02	1.175880e+03	-1.357020e+02	4.526030e+02	1.131310e+03	-2.048200e+02	4.125860e+02	1.135980e+03	-1.811730e+02	4.174810e+02	1.092060e+03	-6.439890e+01	4.101960e+02	1.074270e+03	-1.271290e+02	4.864320e+02	1.107410e+03	-9.252180e+01	4.201860e+02	1.015360e+03	-3.580390e+01	4.362040e+02	1.032690e+03	-1.708890e+01	4.292760e+02	9.566300e+02	-2.448500e+01	4.490220e+02	9.912340e+02	1.869730e+01	4.262380e+02	9.238930e+02	1.056570e+01	4.266770e+02	9.401230e+02	3.077960e+01	4.289560e+02	8.908070e+02	3.633450e+00	4.256770e+02	9.151940e+02	6.758000e+01
872	2.906667e+00	5.454250e+02	9.843650e+02	-2.941920e+02	5.462890e+02	9.933680e+02	-5.653010e+02	3.584440e+02	1.021430e+03	-4.807380e+02	3.560760e+02	1.019820e+03	-3.886770e+02	5.195080e+02	1.435640e+03	-4.091270e+02	5.194810e+02	1.437470e+03	-4.410120e+02	5.327530e+02	1.418100e+03	-4.234920e+02	6.041500e+02	1.209690e+03	-4.255460e+02	3.817000e+02	1.493220e+03	-4.288180e+02	3.587080e+02	1.399430e+03	-4.345190e+02	3.603460e+02	1.201450e+03	-4.339380e+02	5.104870e+02	1.448430e+03	-4.045930e+02	5.004310e+02	1.454660e+03	-3.729740e+02	4.830570e+02	1.463280e+03	-3.546490e+02	4.690660e+02	1.464900e+03	-3.340140e+02	4.512940e+02	1.475850e+03	-3.239210e+02	4.362770e+02	1.477200e+03	-3.005800e+02	4.662410e+02	1.462610e+03	-2.682320e+02	4.428990e+02	1.464330e+03	-2.495380e+02	4.171620e+02	1.464100e+03	-2.573880e+02	3.884170e+02	1.458230e+03	-2.849470e+02	3.554260e+02	1.438860e+03	-3.114740e+02	3.446670e+02	1.424500e+03	-3.572200e+02	3.616760e+02	1.458910e+03	-3.602990e+02	3.372640e+02	1.303650e+03	-3.433200e+02	4.206660e+02	1.328540e+03	-1.820510e+02	3.725200e+02	1.268820e+03	-2.318510e+02	3.968440e+02	1.192790e+03	-2.132420e+02	3.982210e+02	1.257830e+03	-1.753280e+02	4.678090e+02	1.228220e+03	-2.467740e+02	4.028510e+02	1.175880e+03	-1.356740e+02	4.526140e+02	1.131310e+03	-2.048180e+02	4.125910e+02	1.135960e+03	-1.811540e+02	4.174810e+02	1.092070e+03	-6.438750e+01	4.102400e+02	1.074270e+03	-1.271310e+02	4.864270e+02	1.107420e+03	-9.250080e+01	4.202400e+02	1.015370e+03	-3.584550e+01	4.362020e+02	1.032700e+03	-1.706870e+01	4.292600e+02	9.566230e+02	-2.443970e+01	4.490300e+02	9.912530e+02	1.872120e+01	4.262300e+02	9.238930e+02	1.058560e+01	4.265500e+02	9.401540e+02	3.088220e+01	4.286630e+02	8.906980e+02	3.930960e+00	4.257150e+02	9.152080e+02	6.758840e+01
873	2.910000e+00	5.454490e+02	9.843770e+02	-2.941830e+02	5.463170e+02	9.933610e+02	-5.653010e+02	3.584730e+02	1.021440e+03	-4.807430e+02	3.560990e+02	1.019820e+03	-3.886820e+02	5.195190e+02	1.435630e+03	-4.091290e+02	5.195220e+02	1.437470e+03	-4.409960e+02	5.328000e+02	1.418110e+03	-4.234720e+02	6.041710e+02	1.209700e+03	-4.255390e+02	3.817480e+02	1.493190e+03	-4.288430e+02	3.587730e+02	1.399420e+03	-4.345420e+02	3.603640e+02	1.201450e+03	-4.339310e+02	5.105120e+02	1.448430e+03	-4.045840e+02	5.005230e+02	1.454720e+03	-3.729210e+02	4.830980e+02	1.463280e+03	-3.546490e+02	4.690840e+02	1.464890e+03	-3.339990e+02	4.513880e+02	1.475830e+03	-3.238800e+02	4.363170e+02	1.477210e+03	-3.005810e+02	4.662580e+02	1.462610e+03	-2.682280e+02	4.429060e+02	1.464330e+03	-2.495310e+02	4.171890e+02	1.464100e+03	-2.573920e+02	3.884400e+02	1.458230e+03	-2.849230e+02	3.554490e+02	1.438850e+03	-3.114860e+02	3.446330e+02	1.424480e+03	-3.571880e+02	3.617390e+02	1.458910e+03	-3.603350e+02	3.373060e+02	1.303640e+03	-3.432980e+02	4.206880e+02	1.328550e+03	-1.820370e+02	3.725290e+02	1.268820e+03	-2.318370e+02	3.968570e+02	1.192790e+03	-2.132210e+02	3.982240e+02	1.257840e+03	-1.753270e+02	4.678130e+02	1.228230e+03	-2.467710e+02	4.028430e+02	1.175880e+03	-1.356640e+02	4.526170e+02	1.131310e+03	-2.048100e+02	4.125940e+02	1.135950e+03	-1.811440e+02	4.174880e+02	1.092070e+03	-6.435910e+01	4.102070e+02	1.074270e+03	-1.270870e+02	4.864270e+02	1.107420e+03	-9.247380e+01	4.202310e+02	1.015360e+03	-3.580940e+01	4.362230e+02	1.032700e+03	-1.704530e+01	4.292680e+02	9.566330e+02	-2.443910e+01	4.490280e+02	9.912620e+02	1.874260e+01	4.262320e+02	9.239070e+02	1.061880e+01	4.266740e+02	9.401350e+02	3.082960e+01	4.287070e+02	8.906970e+02	3.938160e+00	4.257320e+02	9.152330e+02	6.761480e+01
874	2.913333e+00	5.454860e+02	9.843720e+02	-2.941930e+02	5.463470e+02	9.933540e+02	-5.653030e+02	3.585030e+02	1.021430e+03	-4.807370e+02	3.561390e+02	1.019820e+03	-3.886980e+02	5.195490e+02	1.435630e+03	-4.091110e+02	5.195490e+02	1.437480e+03	-4.409910e+02	5.328240e+02	1.418100e+03	-4.234650e+02	6.042020e+02	1.209690e+03	-4.255250e+02	3.817890e+02	1.493220e+03	-4.288310e+02	3.587630e+02	1.399410e+03	-4.345050e+02	3.603980e+02	1.201440e+03	-4.339240e+02	5.105310e+02	1.448430e+03	-4.045790e+02	5.004730e+02	1.454640e+03	-3.729710e+02	4.831210e+02	1.463300e+03	-3.546420e+02	4.691050e+02	1.464890e+03	-3.339810e+02	4.514140e+02	1.475830e+03	-3.238860e+02	4.363350e+02	1.477200e+03	-3.005720e+02	4.662890e+02	1.462610e+03	-2.682220e+02	4.429310e+02	1.464330e+03	-2.495400e+02	4.171960e+02	1.464090e+03	-2.573940e+02	3.884650e+02	1.458240e+03	-2.849440e+02	3.554700e+02	1.438850e+03	-3.114960e+02	3.445470e+02	1.424480e+03	-3.570790e+02	3.617600e+02	1.458910e+03	-3.603140e+02	3.373320e+02	1.303640e+03	-3.433460e+02	4.206840e+02	1.328550e+03	-1.820370e+02	3.725640e+02	1.268830e+03	-2.318660e+02	3.968310e+02	1.192770e+03	-2.131940e+02	3.982370e+02	1.257830e+03	-1.753320e+02	4.678030e+02	1.228230e+03	-2.466710e+02	4.028630e+02	1.175880e+03	-1.356810e+02	4.526550e+02	1.131310e+03	-2.048010e+02	4.125920e+02	1.135960e+03	-1.811250e+02	4.174810e+02	1.092070e+03	-6.436340e+01	4.102190e+02	1.074270e+03	-1.270790e+02	4.864300e+02	1.107450e+03	-9.245370e+01	4.202350e+02	1.015380e+03	-3.579970e+01	4.362040e+02	1.032710e+03	-1.703640e+01	4.292800e+02	9.566600e+02	-2.440960e+01	4.490480e+02	9.912720e+02	1.876080e+01	4.262450e+02	9.239290e+02	1.063120e+01	4.266780e+02	9.401360e+02	3.084310e+01	4.286510e+02	8.907920e+02	4.020680e+00	4.257310e+02	9.152510e+02	6.763290e+01
875	2.916667e+00	5.454950e+02	9.843590e+02	-2.941740e+02	5.463850e+02	9.933670e+02	-5.652950e+02	3.585160e+02	1.021420e+03	-4.807570e+02	3.561780e+02	1.019820e+03	-3.887130e+02	5.195850e+02	1.435620e+03	-4.091250e+02	5.195590e+02	1.437470e+03	-4.409660e+02	5.328360e+02	1.418100e+03	-4.234630e+02	6.042320e+02	1.209690e+03	-4.255220e+02	3.818160e+02	1.493210e+03	-4.288310e+02	3.587830e+02	1.399410e+03	-4.344930e+02	3.604350e+02	1.201430e+03	-4.339310e+02	5.105790e+02	1.448430e+03	-4.045690e+02	5.005070e+02	1.454640e+03	-3.729550e+02	4.831240e+02	1.463280e+03	-3.546460e+02	4.691930e+02	1.464870e+03	-3.339690e+02	4.514390e+02	1.475830e+03	-3.238850e+02	4.363620e+02	1.477210e+03	-3.005750e+02	4.663070e+02	1.462600e+03	-2.682160e+02	4.429510e+02	1.464340e+03	-2.495320e+02	4.172260e+02	1.464090e+03	-2.573860e+02	3.884900e+02	1.458220e+03	-2.849280e+02	3.554860e+02	1.438840e+03	-3.115000e+02	3.446890e+02	1.424520e+03	-3.571990e+02	3.617750e+02	1.458890e+03	-3.603040e+02	3.373940e+02	1.303640e+03	-3.433740e+02	4.207040e+02	1.328530e+03	-1.820380e+02	3.725700e+02	1.268830e+03	-2.318690e+02	3.968630e+02	1.192790e+03	-2.132050e+02	3.982520e+02	1.257830e+03	-1.753300e+02	4.678180e+02	1.228240e+03	-2.466590e+02	4.028630e+02	1.175880e+03	-1.356800e+02	4.526110e+02	1.131310e+03	-2.047770e+02	4.126270e+02	1.135960e+03	-1.811130e+02	4.174780e+02	1.092080e+03	-6.434670e+01	4.103690e+02	1.074280e+03	-1.270180e+02	4.864410e+02	1.107450e+03	-9.244480e+01	4.201770e+02	1.015370e+03	-3.572860e+01	4.362210e+02	1.032730e+03	-1.700280e+01	4.292770e+02	9.566540e+02	-2.436930e+01	4.490570e+02	9.912830e+02	1.877700e+01	4.262590e+02	9.239240e+02	1.066640e+01	4.266820e+02	9.401640e+02	3.088810e+01	4.286320e+02	8.907690e+02	4.085400e+00	4.257120e+02	9.152600e+02	6.768070e+01
876	2.920000e+00	5.455230e+02	9.843600e+02	-2.941660e+02	5.464180e+02	9.933540e+02	-5.652770e+02	3.585320e+02	1.021410e+03	-4.807180e+02	3.562200e+02	1.019830e+03	-3.887320e+02	5.195140e+02	1.435600e+03	-4.091160e+02	5.195740e+02	1.437480e+03	-4.409830e+02	5.328600e+02	1.418090e+03	-4.234530e+02	6.042440e+02	1.209670e+03	-4.255180e+02	3.818420e+02	1.493200e+03	-4.288270e+02	3.588190e+02	1.399410e+03	-4.345170e+02	3.604600e+02	1.201430e+03	-4.339450e+02	5.105870e+02	1.448420e+03	-4.045720e+02	5.005270e+02	1.454640e+03	-3.729640e+02	4.831510e+02	1.463290e+03	-3.546360e+02	4.691640e+02	1.464840e+03	-3.339760e+02	4.514570e+02	1.475820e+03	-3.238800e+02	4.363830e+02	1.477190e+03	-3.005690e+02	4.663320e+02	1.462600e+03	-2.682170e+02	4.429840e+02	1.464340e+03	-2.495260e+02	4.172520e+02	1.464080e+03	-2.573880e+02	3.885040e+02	1.458220e+03	-2.849340e+02	3.555140e+02	1.438850e+03	-3.115020e+02	3.447190e+02	1.424480e+03	-3.571950e+02	3.618060e+02	1.458900e+03	-3.603190e+02	3.373580e+02	1.303640e+03	-3.433200e+02	4.207320e+02	1.328530e+03	-1.820220e+02	3.725900e+02	1.268830e+03	-2.318740e+02	3.968850e+02	1.192790e+03	-2.132200e+02	3.982680e+02	1.257840e+03	-1.753160e+02	4.677780e+02	1.228200e+03	-2.466520e+02	4.028620e+02	1.175880e+03	-1.356790e+02	4.526490e+02	1.131330e+03	-2.047780e+02	4.126620e+02	1.135950e+03	-1.811560e+02	4.174800e+02	1.092080e+03	-6.431850e+01	4.103670e+02	1.074280e+03	-1.269730e+02	4.864420e+02	1.107460e+03	-9.242360e+01	4.201720e+02	1.015370e+03	-3.568080e+01	4.362190e+02	1.032730e+03	-1.699090e+01	4.293200e+02	9.566620e+02	-2.437890e+01	4.490540e+02	9.912970e+02	1.880120e+01	4.262680e+02	9.239330e+02	1.068640e+01	4.266790e+02	9.401770e+02	3.091530e+01	4.288520e+02	8.908060e+02	3.906630e+00	4.257140e+02	9.152810e+02	6.770500e+01
